<svg width="50" height="50" viewBox="0 0 50 50" fill="none" xmlns="http://www.w3.org/2000/svg">
<rect x="0.5" y="0.5" width="49" height="49" rx="10.5" fill="#FFCC00" stroke="#FFCC00"/>
<g clip-path="url(#clip0_18036_462)">
<path d="M29.1315 5.71436C27.4172 5.71436 25.9029 6.57721 25 7.8915C24.0972 6.57721 22.5829 5.71436 20.8686 5.71436C18.1029 5.71436 15.8572 7.96007 15.8572 10.7258C15.8572 16.8344 25 22.3258 25 22.3258C25 22.3258 34.1429 16.8344 34.1429 10.7258C34.1429 7.96007 31.8972 5.71436 29.1315 5.71436Z" fill="url(#paint0_radial_18036_462)"/>
<path opacity="0.5" d="M31.2056 6.16016C33.9485 10.5316 31.4228 16.2687 28.3885 17.8973C25.0399 19.6973 22.7485 18.8516 18.0056 16.1602C20.7085 19.743 24.9999 22.3202 24.9999 22.3202C24.9999 22.3202 34.1428 16.8287 34.1428 10.7202C34.1428 8.6973 32.937 6.94873 31.2056 6.16016Z" fill="url(#paint1_radial_18036_462)"/>
<path opacity="0.5" d="M29.1315 5.71436C27.4172 5.71436 25.9029 6.57721 25 7.8915C24.0972 6.57721 22.5829 5.71436 20.8686 5.71436C18.1029 5.71436 15.8572 7.96007 15.8572 10.7258C15.8572 16.8344 25 22.3258 25 22.3258C25 22.3258 34.1429 16.8344 34.1429 10.7258C34.1429 7.96007 31.8972 5.71436 29.1315 5.71436Z" fill="url(#paint2_radial_18036_462)"/>
<g filter="url(#filter0_d_18036_462)">
<path d="M29.1315 5.71436C27.4172 5.71436 25.9029 7.77662 25 9.09091C24.0972 7.77662 22.5829 5.71436 20.8686 5.71436C18.1029 5.71436 15.8572 7.96007 15.8572 10.7258C15.8572 16.8344 25 21.0909 25 21.0909C25 21.0909 34.1429 16.8344 34.1429 10.7258C34.1429 7.96007 31.8972 5.71436 29.1315 5.71436Z" fill="url(#paint3_radial_18036_462)" shape-rendering="crispEdges"/>
<path d="M24.9998 21.0913L24.5779 21.9976L24.9998 22.1939L25.4216 21.9976L24.9998 21.0913ZM24.9998 21.0913L25.4226 21.9976L25.4236 21.9966L25.4255 21.9956C25.4272 21.9948 25.4296 21.994 25.4324 21.9927C25.4381 21.99 25.4459 21.9857 25.4558 21.981C25.4758 21.9714 25.5045 21.9577 25.5408 21.9399C25.6135 21.9045 25.718 21.8531 25.8494 21.7857C26.112 21.6508 26.484 21.4532 26.9285 21.1968C27.8152 20.6852 29.0028 19.9341 30.196 18.98C32.5194 17.1221 35.1432 14.2705 35.1433 10.7261C35.1433 7.40812 32.4495 4.71441 29.1316 4.71436C27.8788 4.71436 26.8302 5.45583 26.0681 6.18995C25.6767 6.56698 25.3172 6.98356 24.9998 7.38917C24.6824 6.9837 24.3236 6.56685 23.9324 6.18995C23.1704 5.45587 22.1216 4.71448 20.8689 4.71436C17.5509 4.71436 14.8572 7.40809 14.8572 10.7261C14.8573 14.2706 17.481 17.1221 19.8044 18.98C20.9976 19.934 22.1854 20.6853 23.072 21.1968C23.5162 21.453 23.8876 21.6509 24.1501 21.7857C24.2814 21.853 24.3861 21.9045 24.4587 21.9399C24.495 21.9576 24.5237 21.9714 24.5437 21.981C24.5536 21.9857 24.5614 21.99 24.5671 21.9927C24.5698 21.9939 24.5723 21.9948 24.574 21.9956L24.5769 21.9966V21.9976L24.9998 21.0913Z" stroke="black" stroke-width="2" shape-rendering="crispEdges"/>
</g>
<path opacity="0.24" d="M23.7486 7.74883C24.2514 8.93169 23.1371 10.5374 21.2571 11.3317C19.3771 12.126 17.4514 11.8174 16.9486 10.6403C16.4457 9.46312 17.56 7.85169 19.44 7.0574C21.32 6.26312 23.2457 6.56597 23.7486 7.74883Z" fill="url(#paint4_radial_18036_462)"/>
<path opacity="0.24" d="M29.8742 6.78885C30.5885 7.57742 30.1485 9.13742 28.8971 10.2688C27.6456 11.4003 26.0513 11.6803 25.3371 10.8917C24.6228 10.1031 25.0628 8.54313 26.3142 7.41171C27.5656 6.28028 29.1599 6.00028 29.8742 6.78885Z" fill="url(#paint5_radial_18036_462)"/>
<path opacity="0.32" d="M29.2229 7.04578C31.7372 7.90293 34.1372 11.6172 30.0801 16.2458C27.6515 19.0172 25.0001 20.4172 21.6287 19.8686C23.4515 21.3886 25.0058 22.3258 25.0058 22.3258C25.0058 22.3258 34.1487 16.8344 34.1487 10.7258C34.1429 7.96007 31.8972 5.71436 29.1315 5.71436C27.4172 5.71436 25.9029 6.57721 25.0001 7.8915C25.0001 7.8915 27.3829 6.41721 29.2229 7.04578Z" fill="url(#paint6_linear_18036_462)"/>
</g>
<g filter="url(#filter1_i_18036_462)">
<circle cx="25" cy="35" r="11" fill="white"/>
</g>
<path fill-rule="evenodd" clip-rule="evenodd" d="M25 25.6667C23.7743 25.6667 22.5607 25.9081 21.4283 26.3771C20.2959 26.8462 19.267 27.5337 18.4003 28.4003C17.5337 29.267 16.8462 30.2959 16.3771 31.4283C15.9081 32.5607 15.6667 33.7743 15.6667 35C15.6667 36.2257 15.9081 37.4393 16.3771 38.5717C16.8462 39.7041 17.5337 40.733 18.4003 41.5997C19.267 42.4663 20.2959 43.1538 21.4283 43.6229C22.5607 44.0919 23.7743 44.3333 25 44.3333C27.4754 44.3333 29.8493 43.35 31.5997 41.5997C33.35 39.8493 34.3333 37.4754 34.3333 35C34.3333 32.5246 33.35 30.1507 31.5997 28.4003C29.8493 26.65 27.4754 25.6667 25 25.6667ZM13 35C13 31.8174 14.2643 28.7652 16.5147 26.5147C18.7652 24.2643 21.8174 23 25 23C28.1826 23 31.2348 24.2643 33.4853 26.5147C35.7357 28.7652 37 31.8174 37 35C37 38.1826 35.7357 41.2348 33.4853 43.4853C31.2348 45.7357 28.1826 47 25 47C21.8174 47 18.7652 45.7357 16.5147 43.4853C14.2643 41.2348 13 38.1826 13 35ZM24.2307 31C23.9043 31 23.5912 31.1297 23.3605 31.3605C23.1297 31.5912 23 31.9043 23 32.2307V32.744C23 33.0976 22.8595 33.4368 22.6095 33.6868C22.3594 33.9369 22.0203 34.0773 21.6667 34.0773C21.313 34.0773 20.9739 33.9369 20.7239 33.6868C20.4738 33.4368 20.3333 33.0976 20.3333 32.744V32.2307C20.3333 31.197 20.7439 30.2057 21.4748 29.4748C22.2057 28.7439 23.197 28.3333 24.2307 28.3333H25C27.588 28.3333 29.6667 30.4547 29.6667 33.0213C29.6667 34.2573 29.0267 35.4213 27.9653 36.0747L25.6987 37.4693C25.5495 37.5611 25.3837 37.6226 25.2108 37.6502C25.0378 37.6779 24.8611 37.6712 24.6908 37.6306C24.5204 37.59 24.3597 37.5163 24.2178 37.4135C24.076 37.3108 23.9558 37.1812 23.864 37.032C23.6787 36.7307 23.6207 36.3682 23.7027 36.0241C23.7847 35.68 24 35.3826 24.3013 35.1973L26.568 33.8027C26.7003 33.7197 26.8094 33.6045 26.885 33.4678C26.9605 33.3311 27.0001 33.1775 27 33.0213C27 31.9053 26.0933 31 25 31H24.2307ZM25.0133 41.6667C25.367 41.6667 25.7061 41.5262 25.9561 41.2761C26.2062 41.0261 26.3467 40.687 26.3467 40.3333C26.3467 39.9797 26.2062 39.6406 25.9561 39.3905C25.7061 39.1405 25.367 39 25.0133 39H25C24.6464 39 24.3072 39.1405 24.0572 39.3905C23.8071 39.6406 23.6667 39.9797 23.6667 40.3333C23.6667 40.687 23.8071 41.0261 24.0572 41.2761C24.3072 41.5262 24.6464 41.6667 25 41.6667H25.0133Z" fill="black" stroke="black" stroke-opacity="0.2"/>
<defs>
<filter id="filter0_d_18036_462" x="9.85718" y="3.71436" width="30.2857" height="27.5827" filterUnits="userSpaceOnUse" color-interpolation-filters="sRGB">
<feFlood flood-opacity="0" result="BackgroundImageFix"/>
<feColorMatrix in="SourceAlpha" type="matrix" values="0 0 0 0 0 0 0 0 0 0 0 0 0 0 0 0 0 0 127 0" result="hardAlpha"/>
<feOffset dy="4"/>
<feGaussianBlur stdDeviation="2"/>
<feComposite in2="hardAlpha" operator="out"/>
<feColorMatrix type="matrix" values="0 0 0 0 0 0 0 0 0 0 0 0 0 0 0 0 0 0 0.25 0"/>
<feBlend mode="normal" in2="BackgroundImageFix" result="effect1_dropShadow_18036_462"/>
<feBlend mode="normal" in="SourceGraphic" in2="effect1_dropShadow_18036_462" result="shape"/>
</filter>
<filter id="filter1_i_18036_462" x="10" y="21" width="26" height="25" filterUnits="userSpaceOnUse" color-interpolation-filters="sRGB">
<feFlood flood-opacity="0" result="BackgroundImageFix"/>
<feBlend mode="normal" in="SourceGraphic" in2="BackgroundImageFix" result="shape"/>
<feColorMatrix in="SourceAlpha" type="matrix" values="0 0 0 0 0 0 0 0 0 0 0 0 0 0 0 0 0 0 127 0" result="hardAlpha"/>
<feOffset dx="-8" dy="-3"/>
<feGaussianBlur stdDeviation="2"/>
<feComposite in2="hardAlpha" operator="arithmetic" k2="-1" k3="1"/>
<feColorMatrix type="matrix" values="0 0 0 0 1 0 0 0 0 0.887626 0 0 0 0 0.325759 0 0 0 0.25 0"/>
<feBlend mode="normal" in2="shape" result="effect1_innerShadow_18036_462"/>
</filter>
<radialGradient id="paint0_radial_18036_462" cx="0" cy="0" r="1" gradientUnits="userSpaceOnUse" gradientTransform="translate(22.3848 10.3477) rotate(-29.408) scale(14.3064 11.3486)">
<stop offset="0.2479" stop-color="#FF0000"/>
<stop offset="0.8639" stop-color="#C20000"/>
</radialGradient>
<radialGradient id="paint1_radial_18036_462" cx="0" cy="0" r="1" gradientUnits="userSpaceOnUse" gradientTransform="translate(22.7385 9.47018) rotate(-29.408) scale(12.3173 9.77078)">
<stop offset="0.2479" stop-color="#FF0000"/>
<stop offset="1" stop-color="#C20000"/>
</radialGradient>
<radialGradient id="paint2_radial_18036_462" cx="0" cy="0" r="1" gradientUnits="userSpaceOnUse" gradientTransform="translate(22.3848 10.3477) rotate(-29.408) scale(14.3064 11.3486)">
<stop stop-color="white" stop-opacity="0.25"/>
<stop offset="1" stop-color="white" stop-opacity="0"/>
</radialGradient>
<radialGradient id="paint3_radial_18036_462" cx="0" cy="0" r="1" gradientUnits="userSpaceOnUse" gradientTransform="translate(27.5277 15.2044) rotate(-26.296) scale(10.4431 5.16038)">
<stop stop-color="#BD2719" stop-opacity="0.25"/>
<stop offset="1" stop-color="#BD2719" stop-opacity="0"/>
</radialGradient>
<radialGradient id="paint4_radial_18036_462" cx="0" cy="0" r="1" gradientUnits="userSpaceOnUse" gradientTransform="translate(20.3475 9.19453) rotate(-21.6908) scale(3.71252 2.30616)">
<stop stop-color="white"/>
<stop offset="1" stop-color="white" stop-opacity="0"/>
</radialGradient>
<radialGradient id="paint5_radial_18036_462" cx="0" cy="0" r="1" gradientUnits="userSpaceOnUse" gradientTransform="translate(27.6004 8.84619) rotate(-40.7634) scale(3.07376 1.9095)">
<stop stop-color="white"/>
<stop offset="1" stop-color="white" stop-opacity="0"/>
</radialGradient>
<linearGradient id="paint6_linear_18036_462" x1="26.8868" y1="28.8498" x2="28.6583" y2="4.96408" gradientUnits="userSpaceOnUse">
<stop stop-color="#860805"/>
<stop offset="1" stop-color="#BD2719" stop-opacity="0"/>
</linearGradient>
<clipPath id="clip0_18036_462">
<rect width="24" height="24" fill="white" transform="translate(13 2)"/>
</clipPath>
</defs>
</svg>
